<?xml version="1.0" encoding="utf-8"?>
<svg xmlns="http://www.w3.org/2000/svg" viewBox="0 0 50 50" fill="#000000"><path d="M 25 1 C 24.6 1 24.199609 1.2996094 24.099609 1.5996094 L 18.253906 16.839844 L 3.7070312 2.2929688 A 1.0001 1.0001 0 0 0 2.9902344 1.9902344 A 1.0001 1.0001 0 0 0 2.2929688 3.7070312 L 46.292969 47.707031 A 1.0001 1.0001 0 1 0 47.707031 46.292969 L 37.902344 36.488281 L 36.400391 30.900391 L 49.599609 20.199219 C 49.999609 19.999219 50.1 19.499609 50 19.099609 C 49.9 18.699609 49.499609 18.400391 49.099609 18.400391 L 32.099609 17.5 L 25.900391 1.5996094 C 25.800391 1.2996094 25.4 1 25 1 z M 13.599609 17.800781 L 0.90039062 18.400391 C 0.50039062 18.400391 0.1 18.699609 0 19.099609 C -0.1 19.499609 0.00078125 19.899219 0.30078125 20.199219 L 13.5 30.900391 L 9.1992188 47.400391 C 9.0992188 47.800391 9.1996094 48.2 9.5996094 48.5 C 9.7996094 48.6 9.9992187 48.699219 10.199219 48.699219 C 10.399219 48.699219 10.599219 48.6 10.699219 48.5 L 25 39.199219 L 39.300781 48.400391 C 39.600781 48.600391 40.100391 48.600391 40.400391 48.400391 C 40.700391 48.200391 40.900781 47.700781 40.800781 47.300781 L 39.900391 44.099609 L 13.599609 17.800781 z" fill="#000000"/></svg>
